<svg viewBox="0 0 224 95" fill="none" xmlns="http://www.w3.org/2000/svg">
  <path
    d="M0 96.5C2.59683e-06 70.9066 11.8 46.3615 32.804 28.2642C53.8081 10.1669 82.2957 2.74577e-06 112 0C141.704 -2.74577e-06 170.192 10.1669 191.196 28.2642C212.2 46.3614 224 70.9066 224 96.5L172.074 96.5C172.074 82.7723 165.745 69.6068 154.479 59.8999C143.213 50.193 127.933 44.7397 112 44.7397C96.0673 44.7397 80.7872 50.193 69.5211 59.8999C58.2551 69.6069 51.9258 82.7723 51.9258 96.5H0Z"
    fill="url(#paint0_linear_3_142)" />
  <defs>
    <linearGradient id="paint0_linear_3_142" x1="4.79954e-07" y1="39.8319" x2="344.889" y2="-6.34645"
      gradientUnits="userSpaceOnUse">
      <stop stop-color="#41479E" />
      <stop offset="1" stop-color="#D9D9D9" stop-opacity="0" />
    </linearGradient>
  </defs>
</svg>