<svg width="22" height="22" viewBox="0 0 22 22" fill="none" xmlns="http://www.w3.org/2000/svg">
<path d="M11 21C16.5228 21 21 16.5228 21 11C21 5.47715 16.5228 1 11 1C5.47715 1 1 5.47715 1 11C1 16.5228 5.47715 21 11 21Z" stroke="white" stroke-width="2"/>
<path fill-rule="evenodd" clip-rule="evenodd" d="M10.0644 6.22698C10.0639 6.26974 10.0494 6.31116 10.023 6.34479C9.99657 6.37843 9.95979 6.4024 9.91836 6.41298C9.44236 6.53898 9.00936 6.76298 8.65436 7.11898C8.04236 7.72998 7.81836 8.57198 7.81836 9.46498C7.81836 9.92198 7.92336 10.345 8.15636 10.714C8.38636 11.078 8.70136 11.324 9.02036 11.492C9.60536 11.8 10.3284 11.902 10.8504 11.975L10.8704 11.977C11.4884 12.064 11.8884 12.122 12.1564 12.245C12.2003 12.2629 12.2414 12.2872 12.2784 12.317C12.2878 12.3256 12.2947 12.3367 12.2984 12.349C12.3079 12.3848 12.3119 12.4219 12.3104 12.459C12.3104 12.897 12.1804 13.215 11.9964 13.414C11.8254 13.6 11.5274 13.77 11.0004 13.77C10.3964 13.77 10.1144 13.62 9.97736 13.483C9.94164 13.4466 9.91011 13.4064 9.88336 13.363C9.60736 12.927 9.27136 12.46 8.75336 12.46C8.23736 12.46 7.80236 12.884 7.91136 13.39C8.02836 13.925 8.26136 14.413 8.65436 14.806C9.00936 15.162 9.44236 15.386 9.91836 15.512C9.95979 15.5226 9.99657 15.5465 10.023 15.5802C10.0494 15.6138 10.0639 15.6552 10.0644 15.698V16.036C10.0644 16.1589 10.0886 16.2806 10.1356 16.3942C10.1826 16.5077 10.2516 16.6109 10.3385 16.6978C10.4254 16.7847 10.5286 16.8537 10.6422 16.9007C10.7557 16.9478 10.8774 16.972 11.0004 16.972C11.1233 16.972 11.245 16.9478 11.3586 16.9007C11.4721 16.8537 11.5753 16.7847 11.6622 16.6978C11.7491 16.6109 11.8181 16.5077 11.8651 16.3942C11.9121 16.2806 11.9364 16.1589 11.9364 16.036V15.673C11.9364 15.587 11.9944 15.513 12.0764 15.488C12.5731 15.3405 13.0211 15.0621 13.3734 14.682C13.9394 14.068 14.1834 13.263 14.1834 12.46C14.1834 12.014 14.0674 11.599 13.8164 11.245C13.5894 10.9366 13.2847 10.694 12.9334 10.542C12.4024 10.299 11.7434 10.208 11.2484 10.14L11.1304 10.124C10.5324 10.04 10.1424 9.96698 9.89236 9.83498C9.83121 9.809 9.77807 9.76724 9.73836 9.71398C9.72536 9.69298 9.69036 9.62898 9.69036 9.46498C9.69036 8.86098 9.84036 8.57898 9.97736 8.44198C10.1144 8.30498 10.3964 8.15498 11.0004 8.15498C11.6044 8.15498 11.8864 8.30498 12.0234 8.44198C12.0544 8.47298 12.0864 8.51198 12.1174 8.56098C12.3944 8.99798 12.7294 9.46498 13.2474 9.46498C13.7634 9.46498 14.1984 9.04098 14.0894 8.53498C13.9734 7.99998 13.7394 7.51198 13.3464 7.11898C12.9958 6.77473 12.5593 6.53091 12.0824 6.41298C12.0409 6.4024 12.0041 6.37843 11.9777 6.34479C11.9513 6.31116 11.9368 6.26974 11.9364 6.22698V5.96298C11.9364 5.71473 11.8377 5.47666 11.6622 5.30113C11.4867 5.12559 11.2486 5.02698 11.0004 5.02698C10.7521 5.02698 10.514 5.12559 10.3385 5.30113C10.163 5.47666 10.0644 5.71473 10.0644 5.96298V6.22698Z" fill="white"/>
</svg>
