<svg width="171" height="172" viewBox="0 0 171 172" fill="none" xmlns="http://www.w3.org/2000/svg">
<circle cx="70.7073" cy="10.8205" r="10.3804" transform="rotate(90.3619 70.7073 10.8205)" fill="#EF1E26"/>
<circle cx="159.109" cy="101.838" r="10.3804" transform="rotate(90.3619 159.109 101.838)" fill="#EF1E26"/>
<circle cx="100.168" cy="42.1483" r="10.3804" transform="rotate(90.3619 100.168 42.1483)" fill="#EF1E26"/>
<circle cx="129.639" cy="71.9932" r="10.3804" transform="rotate(90.3619 129.639 71.9932)" fill="#EF1E26"/>
<circle cx="41.0499" cy="10.6331" r="10.3804" transform="rotate(90.3619 41.0499 10.6331)" fill="#EF1E26"/>
<circle cx="158.922" cy="131.496" r="10.3804" transform="rotate(90.3619 158.922 131.496)" fill="#EF1E26"/>
<circle cx="11.3919" cy="10.4458" r="10.3804" transform="rotate(90.3619 11.3919 10.4458)" fill="#EF1E26"/>
<circle cx="158.734" cy="161.153" r="10.3804" transform="rotate(90.3619 158.734 161.153)" fill="#EF1E26"/>
<circle cx="70.5106" cy="41.9609" r="10.3804" transform="rotate(90.3619 70.5106 41.9609)" fill="#EF1E26"/>
<circle cx="99.9813" cy="71.8059" r="10.3804" transform="rotate(90.3619 99.9813 71.8059)" fill="#EF1E26"/>
<circle cx="129.451" cy="101.651" r="10.3804" transform="rotate(90.3619 129.451 101.651)" fill="#EF1E26"/>
<circle cx="40.8531" cy="41.7736" r="10.3804" transform="rotate(90.3619 40.8531 41.7736)" fill="#EF1E26"/>
<circle cx="129.264" cy="131.308" r="10.3804" transform="rotate(90.3619 129.264 131.308)" fill="#EF1E26"/>
<circle cx="159.296" cy="72.1806" r="10.3804" transform="rotate(90.3619 159.296 72.1806)" fill="#EF1E26"/>
<circle cx="159.68" cy="11.3824" r="10.3804" transform="rotate(90.3619 159.68 11.3824)" fill="#EF1E26"/>
<circle cx="159.483" cy="42.5229" r="10.3804" transform="rotate(90.3619 159.483 42.5229)" fill="#EF1E26"/>
<circle cx="130.023" cy="11.1951" r="10.3804" transform="rotate(90.3619 130.023 11.1951)" fill="#EF1E26"/>
<circle cx="129.826" cy="42.3356" r="10.3804" transform="rotate(90.3619 129.826 42.3356)" fill="#EF1E26"/>
<circle cx="100.365" cy="11.0078" r="10.3804" transform="rotate(90.3619 100.365 11.0078)" fill="#EF1E26"/>
</svg>
